<svg width="26" height="32" viewBox="0 0 26 32" fill="none" xmlns="http://www.w3.org/2000/svg">
<g clip-path="url(#clip0_355_87)">
<path d="M11.0078 7.68727C13.493 7.67186 15.9388 8.10087 18.4295 8.01288C19.1397 8.11926 19.8629 8.05066 20.5791 8.08447C20.7942 8.09441 21.0567 8.16003 21.2703 8.15704C21.5198 8.15356 21.851 8.09888 22.1314 8.08645C22.7405 8.05961 24.0877 7.9229 24.5992 8.17196C25.0569 8.39466 25.0295 8.63029 25.2053 9.02102C25.274 9.17413 25.3712 9.21639 25.4264 9.4202C25.5569 9.90339 25.5196 10.4184 25.5325 10.9115C25.5699 12.2995 25.6182 13.8176 25.5584 15.2021C25.5425 15.5734 25.4752 15.9483 25.4608 16.3206C25.3746 18.5631 25.4987 20.8915 25.5106 23.1385C25.5171 24.333 25.4319 25.5042 25.415 26.6923C25.411 26.9806 25.4429 27.3838 25.414 27.6448C25.401 27.7611 25.3119 27.8933 25.3169 28.0017C25.3209 28.0892 25.4822 28.2895 25.5206 28.4203C25.6152 28.7464 25.5539 29.2435 25.5564 29.6004C25.5594 30.0642 25.675 30.5434 25.3552 30.9466C24.9603 31.4452 24.4239 31.303 23.8726 31.3264C22.6076 31.3796 21.5223 31.3358 20.2668 31.2801C19.6557 31.2528 19.058 31.3761 18.4529 31.3999C18.1153 31.4134 17.7607 31.3786 17.425 31.399C17.0679 31.4208 16.7317 31.5446 16.3736 31.5655C15.2022 31.6331 14.0114 31.5565 12.8396 31.7091C11.1751 31.8956 9.47134 31.7738 7.80093 31.7315C6.87856 31.7082 5.99405 31.7499 5.08414 31.5824C4.82067 31.5337 4.61249 31.4268 4.34007 31.4492C3.81464 31.4924 3.12436 31.7067 2.6059 31.4815C2.52223 31.4452 2.43607 31.3597 2.35589 31.3497C1.96344 31.3015 1.63573 31.3463 1.25573 31.3741C0.631688 31.4198 0.290035 31.0679 0.0798631 30.5225C-0.114371 30.02 0.106259 29.8142 0.145604 29.3598C0.17698 28.9979 0.0977924 28.7394 0.0733886 28.4078C0.0305575 27.8237 0.0863376 27.1661 0.0753808 26.5705C0.0474907 25.0668 0.0574515 23.5496 0.0275693 22.0413C-0.00131687 20.6027 -0.0232305 19.1685 0.0499809 17.7274C0.0868356 17.0076 0.0992865 16.2788 0.146102 15.5585C0.182957 14.9918 0.299995 14.4326 0.33685 13.8654C0.376195 13.2579 0.325893 12.636 0.38516 12.0305C0.41554 11.7193 0.508175 11.4121 0.528096 11.1004C0.563457 10.5422 0.41554 9.38689 0.630692 8.9385C0.803012 8.57909 1.10084 8.51795 1.37625 8.29971C1.57646 8.14114 1.63673 7.97808 1.91413 7.88314C2.30908 7.74792 2.45699 7.8896 2.80811 7.91893C3.46452 7.9746 4.23797 7.90401 4.91181 7.91694C5.4477 7.92738 5.99255 8.00542 6.53591 7.96665C6.90546 7.93981 7.27201 7.75737 7.63408 7.72754C8.09875 7.68926 8.63962 7.735 9.11524 7.72804C9.74128 7.71909 10.3808 7.69026 11.0083 7.68628L11.0078 7.68727Z" fill="#0033FF"/>
<path d="M17.6436 14.6395C18.172 14.5962 18.6681 14.8224 18.81 15.3633C18.8698 15.5899 18.8075 15.755 18.828 15.9653C18.8374 16.0597 18.8842 16.1631 18.8982 16.265C18.9734 16.8263 18.8115 17.5192 18.7801 18.0879C18.7672 18.3226 18.8334 18.6323 18.8514 18.8748C18.8593 18.9812 18.8573 19.0901 18.8633 19.1965C18.8817 19.5151 18.8902 19.8313 18.8987 20.1509C18.9335 21.4832 18.9749 22.8139 19.0431 24.1442C19.0331 25.8543 18.9878 27.5609 19.0063 29.2719C19.1098 29.688 19.2777 30.0385 19.1776 30.4794C19.0999 30.8219 19.0496 31.0854 18.7677 31.322C18.3224 31.6958 17.7134 31.4905 17.1884 31.5696C17.0594 31.5889 16.9364 31.6401 16.8089 31.668C16.3393 31.7704 15.9115 31.7107 15.4418 31.7336C15.0922 31.7505 14.7301 31.8246 14.3795 31.8415C13.6837 31.8743 12.9397 31.8345 12.2419 31.8286C12.0472 31.8271 11.7962 31.8112 11.6079 31.8286C11.5213 31.8365 11.4092 31.8887 11.3161 31.9071C10.9983 31.9692 10.6641 31.92 10.3419 31.9359C10.1711 31.9444 9.99876 31.9856 9.82893 31.9961C9.49276 32.016 9.14612 31.9747 8.81393 31.9364C8.58633 31.9101 8.40305 31.8957 8.18691 31.8111C8.10174 31.7778 7.89257 31.6506 7.83131 31.6406C7.78947 31.6337 7.63458 31.6819 7.57133 31.6864C7.10965 31.7167 6.67138 31.413 6.54737 30.9685C6.47615 30.714 6.5399 30.5013 6.55135 30.2502C6.57227 29.7795 6.52546 29.2878 6.55036 28.8185C6.55683 28.7002 6.5892 28.5765 6.59867 28.4611C6.64449 27.9014 6.68284 27.3411 6.69479 26.7809C6.69977 26.5408 6.72517 26.2236 6.70674 25.993C6.69479 25.8418 6.64598 25.6922 6.64548 25.5287C6.64449 25.1255 6.69877 24.6866 6.70674 24.2774C6.71521 23.8335 6.68333 23.3697 6.70575 22.9293C6.72318 22.5823 6.80585 22.2254 6.82577 21.8684C6.82976 21.8008 6.82278 21.7327 6.82577 21.6656C6.84669 21.1039 6.85167 20.5357 6.86213 19.9735C6.86561 19.787 6.81133 19.626 6.80187 19.4371C6.75356 18.4702 6.83922 17.463 6.80236 16.4917C6.48611 15.7798 6.88753 15.1067 7.64554 14.9969C8.25115 14.9089 8.8976 14.9914 9.5077 14.9601C10.2005 14.9248 10.9256 14.8647 11.6214 14.9114C11.7434 14.9198 11.8684 14.9636 11.9904 14.972C12.5014 15.0063 13.0084 14.9492 13.5298 15.0088C13.7569 15.0347 14.0652 15.1565 14.2724 15.1391C14.3974 15.1286 14.5762 15.0555 14.7077 15.0252C15.0155 14.9536 15.3283 14.885 15.637 14.8204C16.1679 14.7096 16.7631 14.6753 17.3055 14.6733C17.4399 14.6733 17.5146 14.6519 17.6431 14.6414L17.6436 14.6395ZM15.389 24.4122L15.395 24.102L15.27 24.3823C15.2715 24.4017 15.3681 24.4112 15.389 24.4122Z" fill="black"/>
<path d="M12.9389 -1.69357e-05C13.5366 -0.00846782 13.6855 0.219706 14.1252 0.537857C14.8544 1.06529 15.6497 1.37748 16.4053 1.8388C16.7514 2.05007 17.0507 2.38015 17.3899 2.57303C17.5248 2.64958 17.6902 2.69681 17.8321 2.76342C18.3431 3.00203 18.869 3.32267 19.39 3.52151C19.8278 3.68854 20.1824 3.77902 20.5793 4.05094C20.8995 4.27066 21.2506 4.5386 21.532 4.80505C21.6202 4.88857 21.6436 4.94822 21.7626 5.01633C22.2701 5.30515 22.9026 5.40656 23.4156 5.67947C23.6298 5.79331 23.829 5.93002 24.0222 6.07517C24.1756 6.1905 24.5472 6.53202 24.709 6.5698C24.8181 6.59515 24.9267 6.59764 25.0387 6.63442C25.4825 6.78057 25.8953 7.35126 25.8809 7.82102C25.8794 7.86576 25.857 7.93188 25.8605 7.97413C25.8635 8.01241 25.9212 8.1004 25.9377 8.14514C26.2873 9.11202 25.098 9.99588 24.217 9.67077C24.1632 9.65089 24.0641 9.58527 24.0222 9.57881C23.9346 9.56539 23.8061 9.58179 23.7119 9.57881C23.0545 9.55743 22.2995 9.53108 21.6451 9.56588C21.5027 9.57334 21.3587 9.60714 21.2158 9.6146C20.5658 9.64741 19.8875 9.58577 19.2316 9.60167C18.8964 9.60963 18.5144 9.62255 18.1847 9.67724C17.9158 9.72198 17.6538 9.79356 17.3804 9.81643C16.839 9.86117 16.2773 9.804 15.7434 9.83979C15.4585 9.85918 15.1706 9.93623 14.8723 9.94816C13.9903 9.98296 13.1102 9.90441 12.2317 9.88751C11.8572 9.88055 11.4822 9.89348 11.1076 9.88851C10.6659 9.88254 10.1444 9.83035 9.70965 9.86365C9.55028 9.87608 9.37148 9.93921 9.20663 9.9581C9.07366 9.97351 8.93421 9.96655 8.80322 9.98495C8.61148 10.0118 8.42969 10.0789 8.22849 10.0908C8.06812 10.1003 7.89879 10.0824 7.73842 10.0908C7.59847 10.0983 7.44906 10.1321 7.30911 10.1395C7.05262 10.153 6.77322 10.1187 6.52022 10.1395C6.41514 10.148 6.30059 10.1898 6.19351 10.2072C5.93901 10.2484 5.63123 10.2509 5.37673 10.2072C5.27862 10.1903 5.17005 10.147 5.07492 10.1391C4.77261 10.1137 4.46732 10.1972 4.167 10.2116C3.62215 10.2375 3.0255 10.1704 2.48214 10.1157C2.16937 10.0839 1.86856 9.97003 1.58468 9.93822C1.41684 9.91933 1.27888 9.93623 1.10208 9.89547C0.537309 9.76423 0.214083 9.23829 0.331619 8.67357C0.350047 8.58359 0.398356 8.48069 0.408317 8.3922C0.416784 8.31565 0.403835 8.23164 0.409313 8.15459C0.44318 7.63908 0.815213 7.22499 1.33716 7.17329C1.39194 7.16782 1.4517 7.17826 1.503 7.1723C1.53737 7.16832 1.87653 6.94661 1.93081 6.90783C2.53942 6.47336 3.14154 6.0016 3.79447 5.63274C4.28852 5.35386 4.81196 5.07797 5.25371 4.71707C5.45193 4.55501 5.62625 4.36263 5.83492 4.2125C6.02219 4.07728 6.23236 3.97637 6.42261 3.84563C6.7289 3.63486 6.99983 3.39276 7.32057 3.19193C7.69957 2.95531 8.11145 2.81413 8.48448 2.5775C8.65331 2.47013 8.80272 2.3374 8.96658 2.22455C9.22755 2.0446 9.51591 1.91784 9.78186 1.73888C10.0478 1.55992 10.2754 1.3561 10.5439 1.20001C10.8123 1.04392 11.1151 0.965372 11.3801 0.806296C11.645 0.647221 11.8532 0.4444 12.0878 0.249035C12.3497 0.0283184 12.6077 0.00495417 12.9389 -1.69357e-05Z" fill="#FFB300"/>
</g>
<defs>
<clipPath id="clip0_355_87">
<rect width="26" height="32" fill="white"/>
</clipPath>
</defs>
</svg>
