<svg width="24" height="24" viewBox="0 0 24 24" fill="none" xmlns="http://www.w3.org/2000/svg">
<path fill-rule="evenodd" clip-rule="evenodd" d="M2.95 15.3L1 22L7.7 20.05C8.38333 20.3667 9.08333 20.6042 9.8 20.7625C10.5167 20.9208 11.25 21 12 21C13.3833 21 14.6833 20.7375 15.9 20.2125C17.1167 19.6875 18.175 18.975 19.075 18.075C19.975 17.175 20.6875 16.1167 21.2125 14.9C21.7375 13.6833 22 12.3833 22 11C22 9.61667 21.7375 8.31667 21.2125 7.1C20.6875 5.88333 19.975 4.825 19.075 3.925C18.175 3.025 17.1167 2.3125 15.9 1.7875C14.6833 1.2625 13.3833 1 12 1C10.6167 1 9.31667 1.2625 8.1 1.7875C6.88333 2.3125 5.825 3.025 4.925 3.925C4.025 4.825 3.3125 5.88333 2.7875 7.1C2.2625 8.31667 2 9.61667 2 11C2 11.75 2.07917 12.4833 2.2375 13.2C2.39583 13.9167 2.63333 14.6167 2.95 15.3ZM13 6.5V12H11V6.5H13ZM13 14V16H11V14H13Z" fill="#0033FF"/>
</svg>
