<svg width="145" height="26" viewBox="0 0 145 26" fill="none" xmlns="http://www.w3.org/2000/svg">
<path d="M0 6.95036C0 6.19281 0.428005 5.50028 1.10557 5.1615L10.9814 0.223607C11.2629 0.0828433 11.5943 0.0828431 11.8758 0.223607L21.7516 5.1615C22.4291 5.50028 22.8571 6.19281 22.8571 6.95035V23C22.8571 23.5523 22.4094 24 21.8571 24H1C0.447716 24 0 23.5523 0 23V6.95036Z" fill="#0033FF"/>
<path fill-rule="evenodd" clip-rule="evenodd" d="M66.5078 8.55469C69.5547 8.55469 71.5469 10.9375 71.5469 14.6094C71.5469 18.2422 69.4766 20.6641 66.5078 20.6641C64.9453 20.6641 63.6562 20.0781 62.7578 18.9844V24.375H59.9453V8.75H62.4453L62.6016 10.5078C63.5 9.25781 64.8672 8.55469 66.5078 8.55469ZM65.6484 10.8984C63.7734 10.8984 62.6406 12.3438 62.6406 14.6094C62.6406 16.875 63.7734 18.3203 65.6484 18.3203C67.5234 18.3203 68.6953 16.875 68.6953 14.6094C68.6953 12.3438 67.5234 10.8984 65.6484 10.8984Z" fill="#0A1543"/>
<path fill-rule="evenodd" clip-rule="evenodd" d="M111.352 8.55469C114.398 8.55469 116.391 10.9375 116.391 14.6094C116.391 18.2422 114.32 20.6641 111.352 20.6641C109.789 20.6641 108.5 20.0781 107.602 18.9844V24.375H104.789V8.75H107.289L107.445 10.5078C108.344 9.25781 109.711 8.55469 111.352 8.55469ZM110.492 10.8984C108.617 10.8984 107.484 12.3438 107.484 14.6094C107.484 16.875 108.617 18.3203 110.492 18.3203C112.367 18.3203 113.539 16.875 113.539 14.6094C113.539 12.3438 112.367 10.8984 110.492 10.8984Z" fill="#0A1543"/>
<path d="M36.9766 8.55469C39.5938 8.55469 41.625 9.80469 42.3672 11.9531L39.8281 12.8125C39.3203 11.6016 38.3047 10.8594 36.9375 10.8594C35.3359 10.8594 34.2422 11.875 33.8906 13.4766H38.3438V15.5078H33.8516C34.125 17.2656 35.2578 18.3594 36.9375 18.3594C38.3047 18.3594 39.3203 17.6172 39.8281 16.4062L42.3672 17.2656C41.625 19.4141 39.5938 20.6641 36.9766 20.6641C33.4219 20.6641 31 18.2422 31 14.6094C31 10.9766 33.4219 8.55469 36.9766 8.55469Z" fill="#0A1543"/>
<path fill-rule="evenodd" clip-rule="evenodd" d="M96.4688 8.55469C99.4375 8.55469 101.195 10.0391 101.195 12.4609V17.3438C101.195 17.8125 101.43 18.0469 101.898 18.0469H102.367V20.4688C102.172 20.5078 101.859 20.5469 101.352 20.5469C99.9062 20.5469 99.1641 20 98.9688 18.75C98.1094 19.9219 96.5859 20.6641 94.8672 20.6641C92.6016 20.6641 91.0391 19.2969 91.0391 17.2266C91.0391 14.2578 93.8516 13.6719 96.0781 13.3984C97.6016 13.2031 98.5781 13.0078 98.5781 12.2266C98.5781 11.4062 97.7188 10.8594 96.3125 10.8594C95.0625 10.8594 93.9297 11.3672 92.9922 12.3047L91.3125 10.5469C92.6797 9.25781 94.3984 8.55469 96.4688 8.55469ZM98.5 14.7266C98.0312 15 97.3672 15.1172 96.3906 15.2734C95.0625 15.5078 93.7734 15.7031 93.7734 16.9922C93.7734 17.8906 94.3984 18.4375 95.4531 18.4375C97.1328 18.4375 98.5 17.3047 98.5 15.9375V14.7266Z" fill="#0A1543"/>
<path fill-rule="evenodd" clip-rule="evenodd" d="M124.164 8.55469C127.836 8.55469 130.219 10.9375 130.219 14.6094C130.219 18.2422 127.758 20.6641 124.164 20.6641C120.492 20.6641 118.109 18.2812 118.109 14.6094C118.109 10.9766 120.57 8.55469 124.164 8.55469ZM124.164 10.8984C122.211 10.8984 121 12.3047 121 14.6094C121 16.9141 122.211 18.3203 124.164 18.3203C126.117 18.3203 127.328 16.9141 127.328 14.6094C127.328 12.3047 126.117 10.8984 124.164 10.8984Z" fill="#0A1543"/>
<path fill-rule="evenodd" clip-rule="evenodd" d="M56.1562 20.4688H53.1484V15H50.0234L46.8203 20.4688H43.5L47.1328 14.5312C45.3359 13.8281 44.3203 12.3438 44.3203 10.2734C44.3203 7.38281 46.3906 5.625 49.8281 5.625H56.1562V20.4688ZM50.0625 8.16406C48.2656 8.16406 47.3672 8.94531 47.3672 10.3516C47.3672 11.7969 48.2656 12.5391 50.0625 12.5391H53.1484V8.16406H50.0625Z" fill="#0A1543"/>
<path d="M81.3906 17.2656L84.4375 8.75H88.5781V20.4688H85.8828V11.875L82.7578 20.4688H79.9453L76.8203 11.875V20.4688H74.0859V8.75H78.3047L81.3906 17.2656Z" fill="#0A1543"/>
<path d="M135.57 13.6719L140.375 8.75H143.891L139.125 13.3594L144.086 20.4688H140.727L137.172 15.3125L135.57 16.8359V20.4688H132.758V8.75H135.57V13.6719Z" fill="#0A1543"/>
</svg>
